<?xml version="1.0" encoding="UTF-8"?>
<svg id="Layer_2" data-name="Layer 2" xmlns="http://www.w3.org/2000/svg" viewBox="0 0 471.15 303.86">
  <defs>
    <style>
      .cls-1 {
        fill: #020202;
      }

      .cls-1, .cls-2 {
        stroke-width: 0px;
      }

      .cls-2 {
        fill: #000;
      }
    </style>
  </defs>
  <g id="Layer_2-2" data-name="Layer 2">
    <g>
      <g>
        <path class="cls-1" d="M59.9,150.53l-4.69-47.37c.02-.1.05-.2.07-.3,11.97,2.68,15.41,4,18.78,7.13,1.46,1.36,2.16,2.82,2.01,4.22-.15,1.42-1.17,2.77-2.88,3.8-1.29.78-2.31,1.52-3.12,2.24-1.24,1.07-2.24,2.36-2.95,3.83-1.38,2.84-1.58,6.06-.54,9.05,1.03,2.99,3.17,5.4,6.01,6.78,1.64.8,3.4,1.2,5.17,1.2,1.3,0,2.61-.22,3.88-.66,2.99-1.03,5.4-3.17,6.78-6.01.72-1.48,1.12-3.05,1.18-4.65.08-1.11.03-2.38-.16-3.87-.24-1.98.19-3.61,1.21-4.6,1.01-.98,2.59-1.33,4.56-1.02,4.54.72,7.71,2.61,17.21,10.37-7.46,9.13-9.98,12.96-10.79,18.16-.52,3.31.56,5.23,1.56,6.26,1.44,1.49,3.67,2.13,6.28,1.8,1.38-.17,2.52-.22,3.52-.15,1.35.05,2.66.39,3.89.98,4.88,2.38,6.92,8.28,4.54,13.16-1.15,2.37-3.15,4.14-5.64,5-2.48.86-5.15.7-7.52-.45-1.24-.6-2.3-1.43-3.2-2.48-.64-.7-1.3-1.63-2.03-2.84-1.36-2.25-3.24-3.61-5.3-3.83-1.43-.15-3.61.19-5.89,2.64-3.59,3.86-5.05,8.2-7.62,19.7-11.98-2.68-15.42-4.01-18.78-7.13-1.46-1.36-2.16-2.82-2.01-4.22.15-1.42,1.17-2.77,2.88-3.8,1.33-.8,2.36-1.54,3.12-2.24,1.24-1.06,2.23-2.34,2.96-3.83,1.38-2.84,1.58-6.05.54-9.04-1.03-2.99-3.17-5.4-6.01-6.78-2.26-1.1-4.71-1.41-7.02-1.04h0ZM65.28,171.75c1.22-.73,2.14-1.4,2.83-2.02,1.06-.9,1.88-1.97,2.48-3.2,1.15-2.36,1.31-5.03.45-7.52-.86-2.49-2.63-4.49-5-5.64-1.92-.93-3.99-1.18-5.95-.84l2.19,22.12c.66-1.1,1.67-2.09,3-2.89h0ZM95.57,24.06c-.82,5.2-3.33,9.02-10.79,18.16,9.5,7.77,12.67,9.65,17.21,10.37,1.97.31,3.55-.04,4.56-1.02,1.02-.99,1.46-2.63,1.21-4.61-.19-1.51-.24-2.78-.16-3.87.07-1.6.46-3.18,1.18-4.66,2.86-5.87,9.96-8.33,15.83-5.47,2.85,1.38,4.98,3.79,6.02,6.78,1.03,2.99.84,6.2-.54,9.05-.72,1.48-1.71,2.77-2.95,3.83-.81.73-1.83,1.47-3.12,2.24-1.7,1.03-2.73,2.38-2.87,3.8-.15,1.4.55,2.86,2.01,4.22,3.46,3.21,6.97,4.52,19.75,7.35l1.25.28h0c1.68.38,3.18.73,4.57,1.07l4.15-41.99v-.05c-.21-2.15-2.44-3.26-5.6-4.31-9.65-3.05-30.35-4.17-46.89-4.18-1.57,0-3.17,0-4.8.03.14.84.16,1.82-.02,2.98ZM53.53,25.22c-3.16,1.05-5.39,2.16-5.6,4.31v.05l2.07,20.99c.17-.05.35-.09.52-.15,2.49-.86,4.49-2.63,5.64-5,.59-1.23.92-2.54.98-3.89.07-.97.02-2.1-.15-3.52-.32-2.61.32-4.84,1.8-6.28,1.03-1,2.95-2.08,6.26-1.56,5.21.82,9.02,3.32,18.16,10.79,7.78-9.52,9.65-12.67,10.37-17.2.15-.98.14-1.87-.03-2.64-9.26.17-19.13.69-27.28,1.68-5.1.61-9.53,1.41-12.75,2.43h.01ZM135.8,92.1c-2.27,2.45-4.45,2.79-5.88,2.64-2.06-.21-3.95-1.57-5.31-3.83-.73-1.21-1.39-2.14-2.03-2.84-.91-1.06-1.98-1.88-3.19-2.47-2.37-1.15-5.04-1.31-7.53-.46-2.48.86-4.49,2.63-5.64,5-2.38,4.88-.33,10.79,4.55,13.17,1.23.59,2.53.92,3.89.98.97.07,2.11.02,3.51-.15,2.62-.33,4.85.32,6.29,1.81,1,1.03,2.08,2.96,1.56,6.26-.81,5.2-3.32,9.02-10.79,18.16,9.5,7.76,12.67,9.65,17.2,10.36,2.44.39,6.41-1.12,9.69-2.77l6.37-64.37c-1.51-.37-3.17-.76-5.08-1.19-2.57,11.51-4.03,15.85-7.62,19.7h0ZM67.28,78.13c2.06.21,3.94,1.57,5.3,3.83.72,1.2,1.38,2.12,2.03,2.83.89,1.05,1.96,1.88,3.2,2.48,2.36,1.15,5.04,1.31,7.52.45,2.49-.86,4.49-2.64,5.64-5,2.37-4.88.33-10.78-4.55-13.16-1.23-.59-2.53-.92-3.89-.98-.97-.07-2.11-.02-3.52.15-2.62.32-4.85-.32-6.29-1.81-1-1.03-2.08-2.96-1.56-6.26.82-5.2,3.33-9.03,10.79-18.16-9.5-7.77-12.67-9.65-17.21-10.37-1.98-.31-3.55.04-4.56,1.02-1.02.99-1.45,2.63-1.21,4.6.19,1.54.24,2.81.16,3.88-.06,1.6-.46,3.17-1.18,4.65-1.38,2.85-3.79,4.98-6.79,6.01-.32.11-.65.21-.97.29l4.38,44.29c2.1-8.89,3.61-12.69,6.8-16.12,2.28-2.45,4.46-2.79,5.89-2.64l.02.02ZM123.03,107.33c-.99-1.03-2.63-1.46-4.6-1.21-1.54.19-2.81.25-3.88.17-1.59-.07-3.17-.46-4.64-1.17-5.88-2.86-8.34-9.97-5.48-15.84,1.39-2.85,3.79-4.98,6.78-6.02,2.99-1.03,6.21-.84,9.05.55,1.47.71,2.75,1.7,3.82,2.95.71.78,1.45,1.81,2.24,3.13,1.03,1.7,2.38,2.72,3.8,2.87,1.4.14,2.85-.55,4.21-2.01,3.13-3.37,4.45-6.78,7.13-18.78-11.52-2.58-15.84-4.03-19.7-7.62-2.45-2.28-2.79-4.46-2.64-5.89.21-2.06,1.57-3.94,3.83-5.3,1.18-.7,2.1-1.37,2.83-2.03,1.05-.9,1.88-1.96,2.47-3.2,1.15-2.36,1.31-5.03.45-7.52s-2.63-4.49-5-5.64c-4.88-2.37-10.78-.33-13.16,4.55-.6,1.23-.93,2.54-.98,3.9-.07.99-.02,2.13.15,3.51.32,2.62-.32,4.85-1.81,6.29-1.03,1-2.95,2.08-6.26,1.56-5.21-.82-9.02-3.32-18.16-10.8-7.77,9.5-9.64,12.65-10.36,17.21-.31,1.97.04,3.55,1.02,4.56.99,1.03,2.63,1.46,4.6,1.21,1.54-.19,2.81-.24,3.88-.16,1.6.07,3.17.46,4.65,1.18,5.88,2.86,8.33,9.96,5.47,15.83-1.38,2.85-3.79,4.98-6.78,6.02-2.99,1.03-6.21.84-9.05-.54-1.49-.73-2.77-1.72-3.82-2.96-.71-.78-1.46-1.81-2.24-3.12-1.03-1.7-2.37-2.72-3.79-2.87-1.4-.14-2.86.55-4.22,2.01-3.13,3.37-4.45,6.79-7.13,18.78,11.52,2.57,15.84,4.03,19.7,7.62,2.45,2.28,2.79,4.46,2.64,5.89-.21,2.06-1.57,3.94-3.83,5.3-1.18.71-2.11,1.38-2.84,2.03-1.05.91-1.88,1.98-2.47,3.2-1.15,2.36-1.31,5.03-.45,7.52.86,2.49,2.63,4.49,5,5.63,2.37,1.15,5.04,1.31,7.52.45,2.49-.86,4.49-2.64,5.64-5,.6-1.23.93-2.53.98-3.89.07-1.01.02-2.14-.15-3.51-.32-2.62.32-4.85,1.8-6.29,1.03-1,2.96-2.08,6.26-1.56,5.21.83,9.02,3.32,18.16,10.79,7.79-9.52,9.66-12.67,10.36-17.21.31-1.97-.04-3.55-1.02-4.56h.02ZM64.49,196.98c-.01,1.6.47,3.7,2.56,4.64,1.9.85,5.42,2.11,12.74,3,1.3-2.86,2.41-6.95,4-14.07-11.71-2.62-15.81-4.01-19.7-7.62-.44-.41-.79-.82-1.11-1.22l1.51,15.23v.03h0ZM132.13,142.7c-5.16-.81-8.97-3.29-17.97-10.63h0l-.19-.15c-7.77,9.5-9.65,12.67-10.36,17.2-.31,1.97.04,3.55,1.02,4.56.99,1.02,2.62,1.45,4.6,1.21,1.51-.19,2.78-.24,3.88-.16,1.6.06,3.17.46,4.65,1.18,5.87,2.86,8.33,9.96,5.47,15.83-1.38,2.85-3.79,4.98-6.78,6.02-2.99,1.04-6.2.84-9.05-.54-1.49-.72-2.77-1.72-3.82-2.96-.7-.77-1.44-1.8-2.24-3.12-1.03-1.71-2.38-2.73-3.79-2.87-1.39-.13-2.86.55-4.21,2.01-3.22,3.46-4.52,6.97-7.35,19.75l-.16-.04h0l.15.04c-1.57,7.08-2.71,11.55-4.1,14.83,4.68.47,10.71.8,18.54.81,22.43-.03,30.16-2.61,33.33-4.04,2.09-.94,2.58-3.04,2.56-4.64l5.61-56.68c-3.42,1.58-7.25,2.79-9.77,2.4h-.02Z"/>
        <g>
          <path class="cls-1" d="M218.27,45.9c0,4.89-1.59,9.4-4.78,13.51-4.38,5.67-10.79,8.51-19.23,8.51-3.94,0-7.04-.78-9.29-2.34-1.38-1.21-2.72-2.41-4.03-3.62v37.34h-20.64V24.94c0-.35-.37-.89-1.13-1.6v-1.7c1.44.28,3.31.55,5.63.8,2.31.25,4.97.37,7.97.37,3.69,0,6.41-.11,8.16-.32,4.69-.57,7.54-.85,8.54-.85,7.5,0,14.18,2.43,20.03,7.29,5.85,4.86,8.77,10.51,8.77,16.97h0ZM197.82,44.72c0-5.46-.5-9.54-1.5-12.23-1.5-4.04-4.28-6.06-8.35-6.06-1.81,0-3.19.43-4.13,1.28-1.69,1.56-2.53,4.47-2.53,8.72,0,2.77.06,6.83.19,12.18.12,5.35.19,8.42.19,9.2,1.13-1.42,2.25-2.13,3.38-2.13.75,0,1.41.28,1.97.85s.84,1.31.84,2.23c0,1.14-.28,1.99-.84,2.55-.63.36-.97.57-1.03.64.19.21.31.5.37.85l2.81.32c3.25,0,5.57-1.77,6.94-5.32,1.13-2.98,1.69-7.34,1.69-13.08Z"/>
          <path class="cls-1" d="M254.09,93.44c0,.71-1.49,1.95-4.46,3.72-2.97,1.77-4.71,2.66-5.21,2.66-.75,0-1.63-.67-2.63-2.02s-2-2.73-3-4.15c-.56,0-2.53,1.03-5.91,3.09s-5.29,3.08-5.72,3.08c-.81,0-1.81-.9-3-2.71s-1.78-3.67-1.78-5.59v-35.44c0-.57-.25-1.52-.75-2.87-.5-1.35-1-2.77-1.5-4.26.25-.21.44-.43.56-.64.75-.92,1.41-1.67,1.97-2.24.81-.92,1.63-1.88,2.44-2.87,1.56-1.77,2.53-2.66,2.91-2.66.56,0,1.66,1.07,3.28,3.19,2,2.63,3,5.18,3,7.66v35.44c0,.92.39,1.79,1.17,2.61s1.45,1.22,2.02,1.22c.25,0,.5-.09.75-.27s.44-.3.56-.37v-47.95h12.85v45.95c0,1.35.41,2.55,1.22,3.62.81,1.06,1.22,1.67,1.22,1.81h.01Z"/>
          <path class="cls-1" d="M291.04,53.23c-.06,0-.99,1.51-2.77,4.52-1.78,3.02-3.86,6.61-6.24,10.8-2.63,4.61-4.94,8.79-6.94,12.55-.5.85-1.41,2.66-2.72,5.43-1.69,3.55-2.53,5.71-2.53,6.49s.33,1.26.99,1.44,1.48.27,2.49.27c2.81,0,4.97-.64,6.47-1.91,1.44-1.49,2.87-2.98,4.31-4.47.31,0,1.33,1.29,3.05,3.88s2.58,4.17,2.58,4.73c-.63.85-1.25,1.42-1.88,1.7-1.19.64-2.47.96-3.85.96h-25.23c-.81-.35-1.41-.67-1.78-.96-1.19-.99-1.78-2.48-1.78-4.47,0-2.34.94-5.64,2.81-9.89,1.88-4.25,5.54-11.2,10.98-20.85,1.62-2.48,2.87-4.47,3.75-5.96,1.69-2.77,2.53-4.82,2.53-6.17,0-1.42-.53-2.13-1.59-2.13-1.38,0-2.99.59-4.83,1.76s-3.61,2.57-5.3,4.2c-1.19-.92-2.5-2.48-3.94-4.68-.94-1.42-1.41-2.41-1.41-2.98,0-.99.91-2.34,2.72-4.04s3.06-2.55,3.75-2.55,1.5.78,2.44,2.34,1.97,2.34,3.09,2.34c.69,0,3.28-.78,7.79-2.34,4.5-1.56,6.85-2.34,7.04-2.34,1.37,2.62,2.37,4.57,3,5.85,2,3.97,3,6.13,3,6.49h0Z"/>
          <path class="cls-1" d="M328.74,53.23c-.06,0-.99,1.51-2.77,4.52-1.78,3.02-3.86,6.61-6.24,10.8-2.63,4.61-4.94,8.79-6.94,12.55-.5.85-1.41,2.66-2.72,5.43-1.69,3.55-2.53,5.71-2.53,6.49s.33,1.26.99,1.44,1.48.27,2.49.27c2.81,0,4.97-.64,6.47-1.91,1.44-1.49,2.87-2.98,4.31-4.47.31,0,1.33,1.29,3.05,3.88s2.58,4.17,2.58,4.73c-.63.85-1.25,1.42-1.88,1.7-1.19.64-2.47.96-3.85.96h-25.23c-.81-.35-1.41-.67-1.78-.96-1.19-.99-1.78-2.48-1.78-4.47,0-2.34.94-5.64,2.81-9.89,1.88-4.25,5.54-11.2,10.98-20.85,1.62-2.48,2.87-4.47,3.75-5.96,1.69-2.77,2.53-4.82,2.53-6.17,0-1.42-.53-2.13-1.59-2.13-1.38,0-2.99.59-4.83,1.76s-3.61,2.57-5.3,4.2c-1.19-.92-2.5-2.48-3.94-4.68-.94-1.42-1.41-2.41-1.41-2.98,0-.99.91-2.34,2.72-4.04s3.06-2.55,3.75-2.55,1.5.78,2.44,2.34c.94,1.56,1.97,2.34,3.09,2.34.69,0,3.28-.78,7.79-2.34,4.5-1.56,6.85-2.34,7.04-2.34,1.37,2.62,2.37,4.57,3,5.85,2,3.97,3,6.13,3,6.49h0Z"/>
          <path class="cls-1" d="M343.74,99.61h-12.57V30.58c.62-.5,2.61-1.58,5.96-3.24,3.34-1.67,5.55-2.64,6.61-2.93v75.21h0Z"/>
          <path class="cls-1" d="M373.93,58.03c0,2.2-2.49,5.71-7.46,10.53-4.97,4.82-7.46,7.59-7.46,8.3,0,1.99,4.03,6.49,12.1,13.51-.31.64-1.85,2.31-4.6,5-2.75,2.7-4.35,4.04-4.78,4.04s-1.39-.6-2.86-1.81c-1.47-1.21-3.05-2.77-4.74-4.68-2.81-3.19-4.94-6.99-6.38-11.39-1.19-3.62-1.78-6.95-1.78-10,0-2.06.44-4.5,1.31-7.34.87-2.84,2.09-5.64,3.66-8.41.81-1.42,2.81-4.04,6-7.87,3.56-4.26,5.82-6.39,6.75-6.39.19,0,.94.99,2.25,2.98,1.06,1.7,2.16,3.41,3.28,5.11.25.28,1.03,1.53,2.34,3.73,1.56,2.63,2.34,4.19,2.34,4.68h.03ZM363.61,64.08c0-.43-.6-1.7-1.78-3.83-1.63-2.91-3.03-5.25-4.22-7.02h-.94c-.63,1.85-1.16,3.64-1.59,5.37-.44,1.74-.66,3.03-.66,3.88,0,2.27.24,4.31.7,6.12.47,1.81,1.11,2.71,1.92,2.71.75,0,2.03-1.06,3.85-3.19,1.81-2.13,2.72-3.47,2.72-4.04h0Z"/>
          <path class="cls-1" d="M409.75,93.01c-.56.91-2.28,2.41-5.16,4.5-1.75,1.26-2.94,1.88-3.56,1.88-1.19,0-2.31-1.15-3.38-3.46-1.06-2.3-1.91-3.46-2.53-3.46-.37,0-1.7,1.15-3.99,3.46-2.28,2.31-3.71,3.46-4.27,3.46-1.13,0-2.72-1.28-4.78-3.84-4.94-6.12-7.41-13.6-7.41-22.42,0-1.78.47-4.34,1.41-7.69.94-3.34,2-6.19,3.19-8.54.5-1.07,2.44-3.81,5.82-8.22,3.63-4.84,5.75-7.26,6.38-7.26.5,0,1.02.25,1.55.74.53.5.92.85,1.17,1.06.12-.14.33-.37.61-.69s.42-.69.42-1.12v-11.06c1.06-1.2,2.69-2.06,4.88-2.55,2.19-.5,3.91-1.03,5.16-1.6h1.88v61.58c0,.85.23,1.71.7,2.56s1.11,1.74,1.92,2.66h-.01ZM394.84,60.47c0-.64-.69-1.88-2.06-3.72-1.38-1.84-3.06-3.9-5.07-6.17-1.13,1.42-2.03,3.97-2.72,7.66-.19,1.21-.41,2.94-.66,5.21,0,3.76.66,7.52,1.97,11.28,1.81,5.25,4.56,9.33,8.25,12.23,0-4.75.05-10.16.14-16.22.09-6.06.14-9.48.14-10.27h0Z"/>
          <path class="cls-1" d="M218.27,151.15c0,4.89-1.59,9.4-4.78,13.51-4.38,5.67-10.79,8.51-19.23,8.51-3.94,0-7.04-.78-9.29-2.34-1.38-1.21-2.72-2.41-4.03-3.62v37.34h-20.64v-74.35c0-.35-.37-.89-1.13-1.6v-1.7c1.44.28,3.31.55,5.63.8,2.31.25,4.97.37,7.97.37,3.69,0,6.41-.11,8.16-.32,4.69-.57,7.54-.85,8.54-.85,7.5,0,14.18,2.43,20.03,7.29s8.77,10.51,8.77,16.97h0ZM197.82,149.98c0-5.46-.5-9.54-1.5-12.23-1.5-4.04-4.28-6.06-8.35-6.06-1.81,0-3.19.43-4.13,1.28-1.69,1.56-2.53,4.47-2.53,8.72,0,2.77.06,6.83.19,12.18.12,5.36.19,8.42.19,9.2,1.13-1.42,2.25-2.13,3.38-2.13.75,0,1.41.28,1.97.85s.84,1.31.84,2.23c0,1.13-.28,1.99-.84,2.55-.63.36-.97.57-1.03.64.19.21.31.5.37.85l2.81.32c3.25,0,5.57-1.77,6.94-5.32,1.13-2.98,1.69-7.34,1.69-13.08h0Z"/>
          <path class="cls-1" d="M235.05,137.11c-.56,1.63-1.63,3.08-3.19,4.36-1.88,1.56-3.88,2.34-6,2.34-1.19,0-2.49-.35-3.89-1.06-1.41-.71-2.11-1.6-2.11-2.66,0-.57.84-1.7,2.53-3.4,1.69-1.7,2.94-2.55,3.75-2.55.62,0,1.13.28,1.5.85,1,1.42,3.47,2.13,7.41,2.13h0ZM236.08,205.08h-13.23v-45.5c0-.43-.17-.94-.52-1.55-.34-.6-.95-1.44-1.83-2.5.31-.5,1.86-2.06,4.64-4.69,2.78-2.63,4.39-3.94,4.83-3.94.94,0,2.19,1.72,3.75,5.17s2.35,5.95,2.35,7.51v45.5h0Z"/>
          <path class="cls-1" d="M273.69,197.83c0,.85-1.38,2.49-4.13,4.9-2.75,2.42-4.41,3.62-4.97,3.62-.5,0-1.47-1.14-2.91-3.41-1.63-2.49-2.44-4.55-2.44-6.18v-33.79c0-.99-.31-2.25-.94-3.78s-1.38-2.29-2.25-2.29c-.5,0-.97.36-1.41,1.06-.44.71-.66,1.28-.66,1.7v45.1h-13.04v-45.63c0-.99-.39-2.07-1.17-3.24s-1.17-1.79-1.17-1.86c0-.43,1.63-1.63,4.88-3.62,3.25-1.98,5.1-2.98,5.53-2.98.94,0,1.98,1.12,3.14,3.35s1.95,3.35,2.39,3.35c.75,0,2.94-1.12,6.57-3.35,3.63-2.23,5.5-3.35,5.63-3.35.75,0,1.69.92,2.81,2.77,1.37,2.2,2.06,4.58,2.06,7.14v33.89c0,.85.22,1.86.66,3.04.44,1.17.91,2.36,1.41,3.57h0Z"/>
          <path class="cls-1" d="M295.25,197.95c0,.57-1.39,1.86-4.17,3.88s-4.52,3.03-5.21,3.03c-1.06,0-2.2-.98-3.42-2.93-1.22-1.96-1.83-3.64-1.83-5.06v-45.51h-5.44v-4.89c3.94,0,7.63-1.76,11.07-5.28,2.81-2.96,4.53-5.84,5.16-8.66h1.31v11.08c0,1.2.75,2.15,2.25,2.85v4.89h-1.97v40.42c0,1.06.37,2.34,1.12,3.83s1.13,2.27,1.13,2.34h0Z"/>
        </g>
      </g>
      <g>
        <path class="cls-2" d="M183.18,260.38c3.43,2.47,6.63,4.79,9.41,5.22,3.07.48,4.83-.33,5.1-2.05.3-1.89-1.78-3.3-1.37-5.96.35-2.25,2.44-3.61,4.8-3.24,2.66.42,4.31,3.03,3.83,6.1-.86,5.49-6.31,9.42-13.93,8.23-2.95-.46-5.75-1.5-8.41-2.71l-4.39,28.12c-.62,3.96.27,4.46,4.48,5.42l-.31,2.01-18.55-2.9.31-2.01c4.3.37,5.3.16,5.92-3.79l4.79-30.66c-3.86-2-7.56-3.9-10.75-4.4-4.78-.75-7.9,1.37-8.52,5.33-.38,2.42.56,4.93,2.75,5.27,2.07.32,3.18-3.31,6.72-2.76,2.3.36,3.73,2.46,3.38,4.7-.5,3.19-3.58,5.07-7.83,4.4-5.49-.86-9.51-5.72-8.52-12.1,1.07-6.85,7.97-11.1,16.18-9.82,5.79.9,10.62,4.44,14.91,7.59Z"/>
        <path class="cls-2" d="M211.79,286.52l-6.83,16.76-5.14-.17-6.91-20.8c-.97-3.14-1.47-4.47-4.03-4.86l.07-1.97,14.34.47-.07,1.97c-3.53.18-3.69,1.19-2.77,4.09l4.23,13.06,5.52-13.33c-.71-2.06-1.33-3.33-3.23-3.69l.07-1.97,13.98.46-.06,1.97c-3.48.18-3.81,1.19-2.89,4.09l4.24,12.94,5.19-12.45c1.29-3.01.25-4.06-2.72-4.46l.06-1.97,10.69.35-.07,1.97c-2.16.23-3.16,1.39-4.46,4.58l-8.44,20.29-5.14-.17-5.65-17.17Z"/>
        <path class="cls-2" d="M238.16,303.42l-.13-2.03c2.96-.49,3.58-1.13,3.46-3.04l-.97-14.79c-.09-1.37-.6-1.82-1.79-1.74l-1.97.13-.12-1.79,7.97-5.38,2.56-.17,1.52,23.26c.12,1.91.88,2.46,3.88,2.56l.13,2.03-14.55.95ZM247.53,265.43c.14,2.09-1.4,4.23-4.14,4.41-2.74.18-4.49-1.74-4.62-3.83-.14-2.15,1.33-4.34,4.08-4.52,2.74-.18,4.55,1.8,4.69,3.95Z"/>
        <path class="cls-2" d="M275.48,299.62l-.3-2.01c2.91-.74,3.53-1.44,3.24-3.33l-2.21-14.6c-.47-3.13-2.44-4.16-4.93-3.79-2.36.36-4.37,1.51-6.18,3.11l2.56,16.9c.29,1.89,1.08,2.38,4.08,2.22l.3,2.01-14.42,2.19-.3-2.01c2.91-.74,3.47-1.43,3.18-3.32l-2.22-14.66c-.21-1.36-.75-1.76-1.93-1.58l-1.95.29-.27-1.77,7.49-6.03,2.54-.38.44,2.9c2.08-1.83,5.41-3.78,8.6-4.27,3.9-.59,9.08.07,10.16,7.23l2.19,14.48c.29,1.89,1.03,2.38,4.03,2.23l.3,2.01-14.42,2.19Z"/>
        <path class="cls-2" d="M340.77,253.63l-1.66,1.22c-5.17-6.61-10.79-10.03-17.11-7.81-9.36,3.28-11.14,13.59-6.33,27.3,4.82,13.76,12.28,20.78,22.15,17.32,5.36-1.88,7.76-5.51,6.46-9.23-.81-2.31-3.48-2.9-4.43-5.6-.85-2.43.35-4.62,2.6-5.41,2.59-.91,5.21.58,6.71,4.87,2.65,7.56-2.37,15.65-10.89,18.63-12.18,4.27-25.49-1.71-31.06-17.62-5.55-15.85,1.21-28.92,13-33.05,4.29-1.5,7.43-1.4,10.24-.61l.16-2.08,2.2-.77,7.98,12.85Z"/>
        <path class="cls-2" d="M349.67,237.36c.92,1.88.3,4.44-2.17,5.65-2.47,1.2-4.81.08-5.73-1.8-.94-1.94-.41-4.52,2.07-5.73,2.47-1.2,4.89-.06,5.83,1.88ZM355.36,276.07l-.89-1.83c2.56-1.58,2.89-2.4,2.05-4.12l-6.49-13.33c-.6-1.24-1.24-1.46-2.32-.93l-1.77.86-.79-1.61,5.35-7.99,2.31-1.12,10.21,20.96c.84,1.72,1.74,1.94,4.56.9l.89,1.83-13.11,6.39Z"/>
        <path class="cls-2" d="M387.35,258.48c-.96,1.32-2.78,2.94-4.58,4-4.18,2.45-7.87,2.53-10.8-2.47l-8.77-14.96-3.2,1.87-.88-1.5c3.32-4.03,3.67-8.04,1.94-13.12l2.27-1.33,4.53,7.74,5.88-3.45,1.57,2.68-5.88,3.45,8.8,15.01c1.45,2.48,3.07,2.98,4.92,1.9,1.03-.6,2.04-1.48,2.68-2.4l1.51,2.58Z"/>
        <path class="cls-2" d="M379.85,218.78c1.2,1.71,1,4.34-1.24,5.92s-4.74.85-5.94-.86c-1.24-1.76-1.12-4.4,1.13-5.98s4.82-.83,6.06.93ZM391.64,256.09l-1.17-1.66c2.27-1.96,2.47-2.83,1.37-4.4l-8.53-12.12c-.79-1.12-1.46-1.24-2.43-.55l-1.61,1.13-1.03-1.47,4.01-8.74,2.1-1.48,13.41,19.07c1.1,1.56,2.03,1.64,4.65.17l1.17,1.66-11.93,8.39Z"/>
        <path class="cls-2" d="M403.84,227.21c.43.57.87,1.15,1.39,1.73,4.67,5.2,9.25,6.8,13.74,2.77,2.76-2.48,3.57-6.5,2.11-10.98l3.04-.73c1.66,5.34,1.13,10.48-3.5,14.63-7.25,6.51-15.5,5.56-21.05-.62-5.59-6.23-5.57-14.52.83-20.28,5.78-5.19,12.38-5.01,17.57.77l-14.14,12.7ZM410.62,216.86c-2.64-2.94-5.76-3.1-8.12-.99-2.94,2.64-2.75,5.44-.6,8.82l8.72-7.83Z"/>
        <path class="cls-2" d="M443.68,194.79c4.59,3.64,4.24,9.76.19,14.87-2.34,2.95-5.59,5.03-8.02,5.69l1.01,1.71-1.15,1.45-8.74-4.18.63-1.56c6.33.67,10.97-1.14,13.83-4.75,1.78-2.25,2.31-5.03.16-6.74-2.3-1.82-5.11.29-8.56,2.91-4.15,3.12-9.02,6.58-13.62,2.94-3.7-2.93-3.69-8.72.1-13.5,2.41-3.04,4.82-4.34,6.96-4.93l-.76-1.44,1.15-1.45,7.54,3.76-.66,1.69c-5.46-.82-9.4.79-11.66,3.65-1.82,2.3-1.66,4.4-.21,5.56,2.01,1.6,4.65-.28,7.93-2.79,4.6-3.3,9.29-6.52,13.88-2.88Z"/>
      </g>
      <path class="cls-2" d="M414.89.26c36.91,26.93,60.07,72.2,55.74,118.25-1.74,19.74-8.56,39.32-19.56,55.54-.27.4-.9.08-.73-.37,12.64-32.98,15.64-68.78,4.99-102.53-7.9-26.28-23.27-49.59-40.91-70.44-.56-.66-.25-.96.47-.44Z"/>
      <path class="cls-2" d="M140.42,278.86c-55.51-12.92-108.49-49.33-130.89-103.03C2.43,158.61-1.02,139.84.26,121.57c.03-.49.75-.51.81-.02,2.37,18.04,7.63,35.24,15.61,51.03,25.33,50.23,73.59,82.98,124.11,105.22,1.79.79,1.54,1.51-.37,1.07Z"/>
    </g>
  </g>
</svg>